Coordinates
version=1
nRows=11
nColumns=36
inDegrees=yes

Units are S.I. units (second, meters, Newtons, ...)
If the header above contains a line with 'inDegrees', this indicates whether rotational values are in degrees (yes) or radians (no).

endheader
time	pelvis_tilt	pelvis_list	pelvis_rotation	pelvis_tx	pelvis_ty	pelvis_tz	hip_flexion_r	hip_adduction_r	hip_rotation_r	knee_angle_r	knee_angle_r_beta	ankle_angle_r	subtalar_angle_r	mtp_angle_r	hip_flexion_l	hip_adduction_l	hip_rotation_l	knee_angle_l	knee_angle_l_beta	ankle_angle_l	subtalar_angle_l	mtp_angle_l	lumbar_extension	lumbar_bending	lumbar_rotation	arm_flex_r	arm_add_r	arm_rot_r	elbow_flex_r	pro_sup_r	arm_flex_l	arm_add_l	arm_rot_l	elbow_flex_l	pro_sup_l
      0.89583330	     10.10063718	     -1.01907989	     -0.65468274	      0.07803377	      0.79272450	     -0.06819177	     44.99643838	     -2.48275415	      3.06105641	     71.12116189	      1.24129844	     15.92693265	    -14.71216798	     -7.49999987	     48.11657623	     -5.52534821	      3.99411012	     74.88091755	      1.30691856	     11.50782841	     -5.02832713	     -7.49999987	    -62.41981069	      1.74053147	      2.52160783	     13.58242841	    -22.43293731	      7.62867258	     39.96372845	     64.35326899	     12.95806739	    -26.66890276	     28.40523344	     37.47413986	     43.47004641
      0.90000000	      9.79515993	     -1.08836878	     -0.66310150	      0.08008103	      0.78773576	     -0.06615150	     45.91370219	     -2.17280641	      2.96590456	     71.99593795	      1.25656617	     16.13968788	    -14.77126975	     -7.49999987	     48.94521472	     -5.72321486	      4.30517737	     75.48715361	      1.31749937	     11.56081562	     -5.02950440	     -7.49999987	    -63.38087309	      1.45406181	      2.56901866	     16.34937520	    -22.31300689	      7.75502821	     40.99474736	     64.47817912	     16.06034771	    -26.95447194	     27.99878382	     38.24210584	     43.61853562
      0.90416670	      9.25695829	     -1.06491746	     -0.73521165	      0.08030883	      0.78309464	     -0.06734816	     47.05925604	     -1.98710408	      3.06898103	     72.79933497	      1.27058809	     16.27102322	    -15.05783921	     -7.49999987	     50.06964415	     -5.89049418	      4.32929474	     76.16595107	      1.32934662	     11.72337028	     -4.82865977	     -7.49999987	    -63.94637472	      1.05494113	      2.65154211	     19.00037231	    -23.29937046	     10.99852197	     42.55885395	     68.55389878	     19.12037376	    -27.77999936	     28.63190444	     39.60865455	     47.16326848
      0.90833330	      9.07772254	     -1.14556261	     -0.76286500	      0.08689369	      0.77505744	     -0.06962207	     47.79119768	     -2.04294021	      3.09679038	     73.98663532	      1.29131039	     16.61122488	    -15.08734649	     -7.49999987	     50.77644901	     -5.89065603	      4.57212851	     77.18486339	      1.34713000	     12.06719655	     -4.87017361	     -7.49999987	    -64.42600076	      0.89684362	      2.59836983	     21.40671996	    -23.20547926	     10.83493518	     43.46760659	     68.53137081	     21.53734418	    -27.77261829	     28.26339064	     40.31622584	     47.30426032
      0.91250000	      8.11532461	     -1.07430953	     -0.77918927	      0.09130487	      0.76834065	     -0.06682056	     49.37435434	     -2.13614048	      3.02565510	     75.26846256	      1.31368249	     17.57013955	    -14.52358875	     -7.49999987	     52.44548955	     -5.98634046	      4.55886740	     78.68169857	      1.37325470	     13.29604636	     -3.93873160	     -7.49999987	    -64.28809461	      0.67324630	      2.67236639	     22.74287227	    -23.41491007	     10.20071365	     46.05988458	     75.99974289	     23.96185600	    -28.05946920	     27.64935348	     41.40371695	     51.49967754
      0.91666670	      7.50057064	     -0.91354615	     -0.80404642	      0.09236052	      0.76604676	     -0.06837564	     50.35377123	     -2.37670685	      3.05334989	     76.11150311	      1.32839633	     18.12452151	    -14.27815120	     -7.49999987	     53.47035924	     -5.80864304	      4.55095182	     79.68188016	      1.39071116	     13.80661649	     -3.71458103	     -7.49999987	    -64.27323080	      0.52885000	      2.34914208	     24.57826121	    -23.48377196	     10.57531933	     47.71349688	     75.77730504	     26.28702247	    -28.30737355	     27.29849352	     42.38188515	     51.81385265
      0.92083330	      7.02280654	     -0.80428935	     -0.93654401	      0.09987199	      0.76062855	     -0.07486347	     51.14011514	     -2.80144808	      3.19835645	     77.11316752	      1.34587867	     18.75325429	    -13.87603814	     -7.49999987	     54.20126324	     -5.54044980	      4.41268815	     80.74753984	      1.40931043	     14.52886376	     -3.77562897	     -7.49999987	    -64.11695041	      0.59808614	      2.22606353	     26.27862718	    -24.15920881	     11.50610854	     49.14366005	     76.29527287	     28.40476572	    -28.00073619	     26.98545440	     42.86424726	     51.96210487
      0.92500000	      6.97680711	     -0.84839748	     -1.04174147	      0.10401036	      0.75391652	     -0.07566308	     51.58606587	     -3.14455761	      3.18383956	     78.24375691	      1.36561118	     19.16655949	    -14.05330549	     -7.49999987	     54.62743371	     -5.43980213	      4.32783054	     81.90856275	      1.42957411	     15.17226582	     -4.01071336	     -7.49999987	    -64.20338662	      0.67919317	      2.09677812	     28.21776623	    -24.29867652	     11.39978108	     49.72985504	     76.33670031	     30.29486651	    -27.76683724	     26.69501412	     43.31325977	     51.99037537
      0.92916670	      6.20555146	     -0.58737133	     -0.99817771	      0.11166549	      0.74479441	     -0.07693689	     53.32614705	     -4.04877953	      3.23142275	     80.36067509	      1.40255837	     20.42286371	    -12.36380781	     -7.49999987	     55.89514600	     -5.12903661	      4.13185632	     83.37505629	      1.45516925	     16.64551658	     -3.38268815	     -7.49999987	    -63.43770113	      0.74984361	      1.83013848	     29.42057582	    -25.11116948	     12.38306885	     51.45927176	     76.97628574	     31.71186728	    -27.47405388	     26.13016731	     43.92845174	     52.20799178
      0.93333330	      5.88262056	     -0.55035804	     -0.98653578	      0.11981101	      0.74037190	     -0.08027583	     54.01936591	     -4.69875384	      3.11426841	     81.77403970	      1.42722624	     21.76807769	    -11.02287591	     -7.49999987	     56.64498284	     -5.04594324	      3.95942378	     84.88799558	      1.48157502	     17.63509467	     -3.23180465	     -7.49999987	    -63.29678052	      0.98067153	      1.84331781	     31.14125658	    -25.57881615	     12.89006406	     52.40999393	     77.71819928	     33.08229534	    -26.82674989	     25.40672729	     44.65259197	     52.52230079
      0.93750000	      5.31000672	     -0.45975646	     -0.99900770	      0.12018173	      0.73503836	     -0.08079834	     55.02783814	     -5.24249349	      3.11843870	     82.98906361	      1.44843240	     22.67187319	    -10.58072535	     -7.49999987	     57.68262633	     -4.96311096	      3.68069211	     86.09376198	      1.50261961	     18.70491357	     -2.76257655	     -7.49999987	    -62.97984697	      1.11566443	      1.84268153	     33.13272160	    -26.02258257	     13.35428505	     53.55134767	     78.57560803	     34.56471488	    -26.43744028	     24.51410566	     45.85137209	     53.08085899
